<svg width="412" height="429" viewBox="0 0 412 429" fill="none" xmlns="http://www.w3.org/2000/svg">
<path d="M217.066 428.937C182.651 386.511 206.053 324.977 222.055 299.513L304.706 359.972L217.066 428.937Z" fill="#EB4444"/>
<path d="M411.616 275.844C378.473 232.418 313.162 240.692 284.649 250.258L323.976 344.808L411.616 275.844Z" fill="#EB4444"/>
<path d="M200.823 291.765L296.154 366.702L313.046 353.409L95.9871 77.5714C78.3561 144.476 87.9665 192.647 94.9755 208.37L154.244 283.689L200.823 291.765Z" fill="#DDDDDD"/>
<path d="M279.321 229.994L329.739 340.273L312.847 353.566L95.7884 77.7278C164.963 76.3247 209.523 96.9936 223.157 107.503L282.426 182.822L279.321 229.994Z" fill="white"/>
<path d="M206.239 159.109C217.547 173.479 214.502 195.478 198.411 208.14C182.319 220.803 160.222 218.589 148.914 204.219C137.606 189.849 140.65 167.85 156.742 155.187C172.833 142.525 194.931 144.739 206.239 159.109Z" fill="#BCF3FF" stroke="#8B8B8B" stroke-width="10"/>
</svg>
