<svg width="101" height="95" viewBox="0 0 101 95" fill="none" xmlns="http://www.w3.org/2000/svg">
<path d="M100 47.5C100 73.1244 77.8967 94 50.5 94C23.1033 94 1 73.1244 1 47.5C1 21.8756 23.1033 1 50.5 1C77.8967 1 100 21.8756 100 47.5Z" stroke="white" stroke-width="2"/>
<rect x="21" y="42" width="57" height="19" fill="white"/>
<circle cx="39.5" cy="58.5" r="6" fill="white" stroke="#BBB8B8" stroke-width="5"/>
<circle cx="20.5" cy="58.5" r="6" fill="white" stroke="#BBB8B8" stroke-width="5"/>
<circle cx="56.5" cy="58.5" r="6" fill="white" stroke="#BBB8B8" stroke-width="5"/>
<path d="M80.5 58.5C80.5 61.9587 77.8969 64.5 75 64.5C72.1031 64.5 69.5 61.9587 69.5 58.5C69.5 55.0413 72.1031 52.5 75 52.5C77.8969 52.5 80.5 55.0413 80.5 58.5Z" fill="white" stroke="#BBB8B8" stroke-width="5"/>
<rect x="72" y="21" width="6" height="21" fill="white"/>
<rect x="14" y="32" width="34" height="10" fill="white"/>
<rect x="65" y="21" width="18" height="6" fill="white"/>
</svg>
