<svg width="397" height="503" viewBox="0 0 397 503" fill="none" xmlns="http://www.w3.org/2000/svg">
<path d="M57.0013 493.526C13.1637 507.667 -6.63393 483.627 -16.5327 479.385C-34.9162 432.719 -0.977467 422.82 41.446 383.225C83.8695 343.63 81.0412 172.522 185.686 107.473C290.33 42.4234 376.591 83.4327 393.561 132.927C410.53 182.421 349.723 264.44 308.714 313.934C267.704 363.428 301.643 408.679 317.199 422.82C332.754 436.962 365.278 469.486 317.199 493.526C269.119 517.566 273.361 479.385 196.999 493.526C120.636 507.667 100.839 479.385 57.0013 493.526Z" fill="#49CE96"/>
<circle cx="356.44" cy="166.159" r="35.3529" fill="white"/>
<circle cx="370.935" cy="165.805" r="20.8582" fill="black"/>
<circle cx="384.369" cy="158.735" r="5.30293" fill="white"/>
<rect x="82.1553" y="18.3835" width="221.309" height="14.3983" transform="rotate(20.3329 82.1553 18.3835)" fill="#49CE96"/>
<rect x="156.568" y="10.606" width="221.309" height="14.905" transform="rotate(23.2417 156.568 10.606)" fill="#49CE96"/>
<ellipse cx="72.91" cy="21.2116" rx="19.0906" ry="18.3835" fill="#49CE96"/>
<ellipse cx="156.343" cy="18.3835" rx="19.0906" ry="18.3835" fill="#49CE96"/>
<path fill-rule="evenodd" clip-rule="evenodd" d="M339.324 449.982C332.861 450.723 326.306 451.103 319.673 451.103C211.505 451.103 123.818 350.12 123.818 225.551C123.818 203.238 126.632 181.681 131.873 161.326C104.861 202.226 90.4986 252.475 78.1789 295.576C66.9245 334.949 57.3752 368.358 41.446 383.225C31.9764 392.064 22.9295 399.422 14.793 406.041C-13.5219 429.072 -30.8127 443.136 -16.5327 479.385C-14.624 480.203 -12.3473 481.757 -9.60116 483.632C1.89466 491.479 21.6165 504.941 57.0013 493.526C77.6338 486.871 92.9411 489.613 111.327 492.906C132.005 496.61 156.577 501.012 196.999 493.526C235.039 486.482 253.076 492.421 267.543 497.185C282.118 501.985 293.07 505.591 317.199 493.526C344.055 480.098 345.762 464.022 339.324 449.982Z" fill="#21B577"/>
<path fill-rule="evenodd" clip-rule="evenodd" d="M339.324 449.982C332.861 450.723 326.306 451.103 319.673 451.103C211.505 451.103 123.818 350.12 123.818 225.551C123.818 203.238 126.632 181.681 131.873 161.326C104.861 202.226 90.4986 252.475 78.1789 295.576C66.9245 334.949 57.3752 368.358 41.446 383.225C31.9764 392.064 22.9295 399.422 14.793 406.041C-13.5219 429.072 -30.8127 443.136 -16.5327 479.385C-14.624 480.203 -12.3473 481.757 -9.60116 483.632C1.89466 491.479 21.6165 504.941 57.0013 493.526C77.6338 486.871 92.9411 489.613 111.327 492.906C132.005 496.61 156.577 501.012 196.999 493.526C235.039 486.482 253.076 492.421 267.543 497.185C282.118 501.985 293.07 505.591 317.199 493.526C344.055 480.098 345.762 464.022 339.324 449.982Z" fill="#21B577"/>
<path fill-rule="evenodd" clip-rule="evenodd" d="M-18.2815 475.511C-3.60679 480.142 16.2996 482.439 43.5716 475.475C69.6345 468.819 88.9704 471.561 112.195 474.854C138.316 478.558 169.355 482.96 220.415 475.475C268.467 468.431 291.252 474.37 309.527 479.133C317.489 481.209 324.596 483.061 332.563 483.519C328.742 487.089 323.642 490.567 317.008 493.884C292.88 505.948 281.928 502.342 267.353 497.543C252.886 492.779 234.848 486.84 196.809 493.884C156.387 501.369 131.815 496.968 111.137 493.264C92.751 489.97 77.4438 487.228 56.8112 493.884C21.4264 505.298 1.70459 491.836 -9.79123 483.989C-12.5374 482.115 -14.8141 480.561 -16.7228 479.743C-17.2921 478.298 -17.8112 476.888 -18.2815 475.511Z" fill="#1D9260"/>
<path d="M83.3524 209.289C97.4936 157.532 159.479 109.712 188.704 92.271C149.816 92.271 115.17 137.169 93.9583 154.846C72.7466 172.522 2.04076 162.977 23.2525 190.198C44.4642 217.42 70.2719 178.532 83.3524 190.198C96.433 201.865 71.686 209.289 37.3936 238.632C3.10133 267.975 -21.6457 257.723 -39.3221 266.914C-8.5651 291.661 24.3131 261.258 52.5954 266.914C80.8777 272.571 50.4742 294.136 2.04076 304.742C-46.3927 315.348 -158.815 321.358 -92.705 317.822C-26.5951 314.287 12.6466 366.256 37.3936 345.044C62.1407 323.832 65.676 273.985 83.3524 209.289Z" fill="#FD9B40"/>
</svg>
