<svg width="131" height="185" viewBox="0 0 131 185" fill="none" xmlns="http://www.w3.org/2000/svg">
<path d="M0.715674 184.978C0.290547 156.282 29.9431 138.48 44.8226 133.166L59.3035 184.978H0.715674Z" fill="#EB4444"/>
<path d="M130.773 184.978C131.198 156.282 101.546 138.48 86.6665 133.166L72.1856 184.978H130.773Z" fill="#EB4444"/>
<path d="M38.5739 123.069L53.5862 184.978H64.8786L64.8786 0.579102C35.8637 22.4731 24.1816 45.4831 21.9674 54.2513L21.9674 104.602L38.5739 123.069Z" fill="#DDDDDD"/>
<path d="M91.0505 123.069L76.0382 184.978H64.7458L64.7458 0.579102C93.7607 22.4731 105.443 45.4831 107.657 54.2513L107.657 104.602L91.0505 123.069Z" fill="white"/>
<path d="M81.5336 70.0607C81.5336 78.204 74.3501 85.3871 64.7458 85.3871C55.1416 85.3871 47.9581 78.204 47.9581 70.0607C47.9581 61.9175 55.1416 54.7344 64.7458 54.7344C74.3501 54.7344 81.5336 61.9175 81.5336 70.0607Z" fill="#BCF3FF" stroke="#8B8B8B" stroke-width="10"/>
</svg>
