<svg width="1914" height="302" viewBox="0 0 1914 302" fill="none" xmlns="http://www.w3.org/2000/svg">
<path d="M0 302C308.333 74.5602 1122.8 -243.855 1914 302H0Z" fill="#4497E3"/>
<mask id="mask0" mask-type="alpha" maskUnits="userSpaceOnUse" x="0" y="0" width="1914" height="302">
<path d="M0 302C308.333 74.5602 1122.8 -243.855 1914 302H0Z" fill="#4497E3"/>
</mask>
<g mask="url(#mask0)">
<path d="M-4 304.542C60.8 205.702 327 113.54 452 79.8138C496.8 66.8039 522.333 74.393 529.5 79.8138C536 103.371 533 148.758 469 141.843C405 134.928 393.667 175.23 396 196.245C431.667 195.906 512.2 195.432 549 196.245C595 197.262 584 227.26 591.5 253.19C599 279.12 705 281.154 752.5 272.511C800 263.867 797.5 240.479 826.5 272.511C849.7 298.136 910.5 304.542 938 304.542H-4Z" fill="#34975C"/>
<path d="M766 23.8864C820.5 -25.4318 941 -2.04378 950 -2.04378C1060.4 -34.5835 1269.33 20.6663 1360 52.3587C1347.67 57.9514 1320.3 69.137 1309.5 69.137C1296 69.137 1289 96.084 1261 96.084C1233 96.084 1204.5 74.7298 1191.5 69.137C1178.5 63.5442 1132 96.084 1105.5 96.084C1079 96.084 1061 118.455 1038.5 96.084C1016 73.7129 998.5 79.3057 963 96.084C927.5 112.862 939.5 116.93 861 96.084C782.5 75.2382 711.5 73.2046 766 23.8864Z" fill="white"/>
</g>
</svg>
