<svg width="1920" height="594" viewBox="0 0 1920 594" fill="none" xmlns="http://www.w3.org/2000/svg">
<path d="M278 10.1665C148.8 0.166505 40.1667 76.6665 2 116.167L-11 596.667H1920.5V180.167C1880.17 214.167 1778.7 276.167 1695.5 252.167C1591.5 222.167 1446.5 82.1666 1361.5 42.1666C1276.5 2.16657 1094 -11.3334 990 10.1665C886 31.6664 735 116.167 637 116.167C539 116.167 439.5 22.6665 278 10.1665Z" fill="#D57B54"/>
<path d="M1439 256.5C1602.2 178.5 1828.67 224 1921.5 256.5V596.5H0.5V80C276.5 73.5 298 237 389.5 218C481 199 653 279.5 808 339C963 398.5 1235 354 1439 256.5Z" fill="#FD9B40"/>
<path d="M251.566 414.212C123.933 372.087 27.0075 402.194 -2 423.225V593.5H1921.5V425C1785.63 443.817 1489.89 473.414 1375.86 442.674C1233.32 404.25 859.223 442.674 770.2 464.97C681.177 487.266 411.107 466.868 251.566 414.212Z" fill="#FFB762"/>
</svg>
