<svg width="475" height="419" viewBox="0 0 475 419" fill="none" xmlns="http://www.w3.org/2000/svg">
<rect x="377.04" y="233.745" width="158.524" height="26.1098" transform="rotate(-90 377.04 233.745)" fill="#6A6A6A"/>
<rect x="0.934692" y="207.635" width="456.921" height="19.8932" rx="5" fill="#272727"/>
<rect x="88.589" y="268.558" width="244.935" height="95.7359" fill="#707070"/>
<path d="M23.3145 227.528H432.99L333.658 280.991H107.612L23.3145 227.528Z" fill="#888888"/>
<path d="M23.3145 227.528H344.714L266.786 280.991H89.4478L23.3145 227.528Z" fill="#484848"/>
<circle cx="110.658" cy="370.199" r="47.5571" fill="#363636"/>
<circle cx="110.658" cy="371.443" r="33.2589" fill="#FD9B40"/>
<circle cx="110.658" cy="371.443" r="27.6639" fill="#D0D0D0"/>
<circle cx="110.658" cy="352.171" r="7.77077" fill="#616161"/>
<circle cx="110.658" cy="390.093" r="7.77077" fill="#616161"/>
<circle cx="129.574" cy="371.088" r="7.77077" transform="rotate(2.00042 129.574 371.088)" fill="#616161"/>
<circle cx="91.0312" cy="370.466" r="7.77077" transform="rotate(2.00042 91.0312 370.466)" fill="#616161"/>
<circle cx="223.8" cy="371.443" r="47.5571" fill="#363636"/>
<circle cx="223.8" cy="372.686" r="33.2589" fill="#FD9B40"/>
<circle cx="223.8" cy="372.686" r="27.6639" fill="#D0D0D0"/>
<circle cx="223.8" cy="353.415" r="7.77077" fill="#616161"/>
<circle cx="223.8" cy="391.336" r="7.77077" fill="#616161"/>
<circle cx="242.717" cy="372.331" r="7.77077" transform="rotate(2.00042 242.717 372.331)" fill="#616161"/>
<circle cx="204.174" cy="371.709" r="7.77077" transform="rotate(2.00042 204.174 371.709)" fill="#616161"/>
<circle cx="336.943" cy="370.199" r="47.5571" fill="#363636"/>
<circle cx="336.943" cy="371.443" r="33.2589" fill="#FD9B40"/>
<circle cx="336.943" cy="371.443" r="27.6639" fill="#D0D0D0"/>
<circle cx="336.943" cy="352.171" r="7.77077" fill="#616161"/>
<circle cx="336.943" cy="390.093" r="7.77077" fill="#616161"/>
<circle cx="355.859" cy="371.088" r="7.77077" transform="rotate(2.00042 355.859 371.088)" fill="#616161"/>
<circle cx="317.316" cy="370.466" r="7.77077" transform="rotate(2.00042 317.316 370.466)" fill="#616161"/>
<rect x="339.119" y="98.2227" width="108.169" height="27.9748" rx="13.9874" fill="#7E7E7E"/>
<ellipse cx="349.687" cy="112.21" rx="7.45994" ry="8.39243" fill="#5A5A5A"/>
<rect x="329.794" width="131.792" height="98.2225" rx="20" fill="#5A5A5A"/>
<rect x="350.93" y="5.59497" width="106.926" height="86.411" rx="20" fill="#A29E9E"/>
<ellipse cx="404.393" cy="35.1239" rx="20.5148" ry="20.204" fill="white"/>
<ellipse cx="455.059" cy="35.1239" rx="19.5823" ry="20.204" fill="white"/>
<ellipse cx="462.519" cy="35.4347" rx="12.1224" ry="12.4332" fill="#292929"/>
<circle cx="469.046" cy="30.4613" r="3.10831" fill="white"/>
<ellipse cx="412.786" cy="35.4347" rx="12.1224" ry="12.4332" fill="#292929"/>
<circle cx="419.935" cy="30.4613" r="3.10831" fill="white"/>
<rect x="90.454" y="84.5459" width="4.97329" height="123.089" fill="#929292"/>
<rect x="82.994" y="169.092" width="19.8932" height="38.543" fill="#464444"/>
<circle cx="93.2515" cy="78.6402" r="13.9874" fill="#272727"/>
<path d="M446.5 75.5337C437 88 429.426 88 417 88C404.574 88 400 84.0941 400 75.5337C400 66.9733 434.074 58 446.5 58C458.926 58 451.5 66 446.5 75.5337Z" fill="#0D0D0D"/>
</svg>
